<?xml version="1.0" standalone="no"?>
<!DOCTYPE svg PUBLIC "-//W3C//DTD SVG 20010904//EN"
 "http://www.w3.org/TR/2001/REC-SVG-20010904/DTD/svg10.dtd">
<svg version="1.0" xmlns="http://www.w3.org/2000/svg"
 width="700.000000pt" height="700.000000pt" viewBox="0 0 700.000000 700.000000"
 preserveAspectRatio="xMidYMid meet">
<metadata>
Created by potrace 1.11, written by Peter Selinger 2001-2013
</metadata>
<g transform="translate(0.000000,700.000000) scale(0.100000,-0.100000)"
fill="#000000" stroke="none">
<path d="M1641 6984 c-168 -45 -298 -188 -321 -351 -4 -32 -7 -257 -6 -501 l1
-444 185 0 c102 0 200 1 218 1 l32 1 0 435 0 435 23 1 c29 1 3460 1 3470 0 4
-1 7 -197 7 -436 l0 -435 40 -1 c22 0 103 0 180 0 77 0 158 0 180 0 l39 1 -1
458 c0 396 -3 466 -17 522 -40 152 -139 256 -295 310 -57 19 -88 20 -1869 19
-1555 0 -1820 -2 -1866 -15z"/>
<path d="M320 5231 c-85 -27 -134 -56 -190 -111 -57 -58 -87 -110 -112 -195
-17 -56 -18 -152 -18 -1431 0 -1312 1 -1374 19 -1426 55 -160 151 -255 306
-301 28 -8 53 -15 58 -16 4 0 215 -1 470 -1 l462 0 -2 -652 c-1 -391 2 -681 8
-723 26 -187 174 -337 359 -366 42 -6 706 -9 1865 -7 l1800 3 56 23 c100 40
194 125 242 217 44 86 45 110 45 821 0 372 2 677 4 680 2 2 212 4 467 4 497 2
507 2 613 56 72 36 146 117 187 204 l36 75 2 1385 c2 1119 0 1396 -10 1440
-39 160 -151 275 -316 324 -50 14 -336 16 -3175 15 -2962 0 -3124 -1 -3176
-18z m5928 -437 c103 -31 216 -123 262 -214 51 -99 62 -233 30 -340 -28 -91
-122 -204 -204 -247 -179 -93 -394 -58 -529 86 -201 215 -131 570 136 691 34
15 73 30 87 33 47 9 174 4 218 -9z m-1015 -1733 c16 -1 17 -70 17 -1311 0
-1041 -3 -1310 -12 -1311 -7 0 -794 -1 -1748 -1 l-1735 -1 -3 1311 -2 1311 22
3 c18 2 3395 1 3461 -1z"/>
<path d="M2189 2575 c-2 -155 0 -377 4 -382 7 -6 2607 -6 2614 1 4 4 6 225 4
391 l-1 40 -1310 0 -1310 0 -1 -50z"/>
<path d="M2189 1733 c0 -10 -1 -108 -1 -218 l0 -200 1093 0 1094 0 0 218 0
217 -1092 0 c-1034 0 -1093 -1 -1094 -17z"/>
</g>
</svg>
